<?xml version="1.0" encoding="utf-8"?>
<!-- Generator: Adobe Illustrator 16.0.0, SVG Export Plug-In . SVG Version: 6.00 Build 0)  -->
<!DOCTYPE svg PUBLIC "-//W3C//DTD SVG 1.1//EN" "http://www.w3.org/Graphics/SVG/1.1/DTD/svg11.dtd">
<svg version="1.1" id="Capa_1" xmlns="http://www.w3.org/2000/svg" xmlns:xlink="http://www.w3.org/1999/xlink" x="0px" y="0px"
	 width="24px" height="24px" viewBox="0 0 24 24" enable-background="new 0 0 24 24" xml:space="preserve">
<path d="M21.834,16.667V2.292H2.209v14.375H21 M21,2c1.105,0,1.041-0.063,1.041,1.041v12c0,1.104,0.318,2.167-1.041,2.167
	l-8.5-0.041V20h3.438v0.438H8.25V20h3.625v-2.833L3,17.208c-1.39,0-1.041-1.066-1.041-2.166v-12C1.958,1.932,1.891,2,3,2H21
	 M12.523,9.188h1.637l-1.336,0.855l0.51,1.415L12,10.583l-1.334,0.875l0.508-1.415L9.841,9.188h1.635L12,7.73L12.523,9.188z"/>
</svg>
