<?xml version="1.0" encoding="utf-8"?>
<!-- Generator: Adobe Illustrator 16.0.0, SVG Export Plug-In . SVG Version: 6.00 Build 0)  -->
<!DOCTYPE svg PUBLIC "-//W3C//DTD SVG 1.1//EN" "http://www.w3.org/Graphics/SVG/1.1/DTD/svg11.dtd">
<svg version="1.1" id="Capa_1" xmlns="http://www.w3.org/2000/svg" xmlns:xlink="http://www.w3.org/1999/xlink" x="0px" y="0px"
	 width="24px" height="24px" viewBox="0 0 24 24" enable-background="new 0 0 24 24" xml:space="preserve">
<path d="M22,10.002h-5c-0.553,0-1,0.448-1,1v9c0,0.553,0.447,1,1,1h5c0.553,0,1-0.447,1-1v-9C23,10.45,22.553,10.002,22,10.002
	 M22.688,20.479h-6.271V10.418h6.271v8.584 M20.266,2.002H2C0.719,1.999,0.719,2.31,0.719,3.42v12
	C0.716,17.016,0.594,17.252,2,17.335h8.292v2.667H7v0.456h7.084v-0.456h-3v-2.667H15v-0.541H1.063V2.377H21v6.625l0.375-0.167v-6
	C21.375,1.726,20.844,2.064,20.266,2.002z"/>
</svg>
