<?xml version="1.0" encoding="iso-8859-1"?>
<!-- Generator: Adobe Illustrator 19.0.0, SVG Export Plug-In . SVG Version: 6.00 Build 0)  -->
<svg version="1.1" id="Capa_1" xmlns="http://www.w3.org/2000/svg" xmlns:xlink="http://www.w3.org/1999/xlink" x="0px" y="0px"
	 viewBox="0 0 512 512" style="enable-background:new 0 0 512 512;" xml:space="preserve">
<path style="fill:#4398D1;" d="M73.763,69.424c-19.17,0-34.712,15.542-34.712,34.712v242.983h433.898V104.136
	c0-19.17-15.542-34.712-34.712-34.712H73.763z"/>
<rect x="39.051" y="329.763" style="fill:#3E8FC9;" width="433.898" height="17.356"/>
<g>
	<polygon style="fill:#F0E4D6;" points="331.212,494.644 299.39,399.186 212.61,399.186 180.788,494.644 143.186,494.644 
		143.186,512 368.814,512 368.814,494.644 	"/>
	<path style="fill:#F0E4D6;" d="M39.051,347.119v17.356c0,19.17,15.542,34.712,34.712,34.712h364.475
		c19.17,0,34.712-15.542,34.712-34.712v-17.356H39.051z"/>
</g>
<path style="fill:#87CED9;" d="M386.169,0H125.831c-9.589,0-17.356,7.767-17.356,17.356v329.763h295.051V17.356
	C403.525,7.767,395.759,0,386.169,0z"/>
<polygon style="fill:#7DC6D1;" points="403.525,77.017 133.424,347.119 403.525,347.119 "/>
<g>
	<path style="fill:#61ACC9;" d="M334.102,112.814c-23.96,0-43.39-19.43-43.39-43.39s19.43-43.39,43.39-43.39
		c23.96,0,43.39,19.43,43.39,43.39C377.466,93.375,358.053,112.788,334.102,112.814z M334.102,43.39
		c-14.379,0-26.034,11.655-26.034,26.034s11.654,26.034,26.034,26.034c14.379,0,26.034-11.655,26.034-26.034
		S348.481,43.39,334.102,43.39z"/>
	<rect x="325.424" y="60.746" style="fill:#61ACC9;" width="17.356" height="17.356"/>
	<path style="fill:#61ACC9;" d="M186.576,182.237c-23.96,0-43.39-19.43-43.39-43.39s19.43-43.39,43.39-43.39
		s43.39,19.43,43.39,43.39C229.94,162.799,210.527,182.211,186.576,182.237z M186.576,112.814
		c-14.379,0-26.034,11.655-26.034,26.034s11.655,26.034,26.034,26.034c14.379,0,26.034-11.655,26.034-26.034
		S200.956,112.814,186.576,112.814z"/>
	<rect x="177.898" y="130.169" style="fill:#61ACC9;" width="17.356" height="17.356"/>
	<rect x="186.576" y="95.458" style="fill:#61ACC9;" width="147.525" height="17.356"/>
	<path style="fill:#61ACC9;" d="M334.102,251.661c-23.96,0-43.39-19.43-43.39-43.39s19.43-43.39,43.39-43.39
		c23.96,0,43.39,19.43,43.39,43.39C377.466,232.222,358.053,251.635,334.102,251.661z M334.102,182.237
		c-14.379,0-26.034,11.655-26.034,26.034c0,14.379,11.654,26.034,26.034,26.034c14.379,0,26.034-11.655,26.034-26.034
		C360.136,193.892,348.481,182.237,334.102,182.237z"/>
	<rect x="325.424" y="199.593" style="fill:#61ACC9;" width="17.356" height="17.356"/>
	<rect x="186.576" y="164.881" style="fill:#61ACC9;" width="147.525" height="17.356"/>
	<path style="fill:#61ACC9;" d="M195.254,321.085c-23.96,0-43.39-19.43-43.39-43.39s19.43-43.39,43.39-43.39
		s43.39,19.43,43.39,43.39C238.618,301.646,219.205,321.059,195.254,321.085z M195.254,251.661
		c-14.379,0-26.034,11.655-26.034,26.034c0,14.379,11.655,26.034,26.034,26.034c14.379,0,26.034-11.655,26.034-26.034
		S209.634,251.661,195.254,251.661z"/>
	<rect x="186.576" y="269.017" style="fill:#61ACC9;" width="17.356" height="17.356"/>
	<rect x="195.254" y="234.305" style="fill:#61ACC9;" width="147.525" height="17.356"/>
</g>
<g>
	<rect x="134.508" y="26.034" style="fill:#3077A6;" width="17.356" height="17.356"/>
	<rect x="169.22" y="26.034" style="fill:#3077A6;" width="17.356" height="17.356"/>
	<rect x="203.932" y="26.034" style="fill:#3077A6;" width="17.356" height="17.356"/>
</g>
<polygon style="fill:#E0D2C1;" points="305.178,416.542 299.39,399.186 212.61,399.186 206.822,416.542 "/>
<rect x="108.475" y="329.763" style="fill:#7DC6D1;" width="295.051" height="17.356"/>
<g>
</g>
<g>
</g>
<g>
</g>
<g>
</g>
<g>
</g>
<g>
</g>
<g>
</g>
<g>
</g>
<g>
</g>
<g>
</g>
<g>
</g>
<g>
</g>
<g>
</g>
<g>
</g>
<g>
</g>
</svg>
