<?xml version="1.0" encoding="iso-8859-1"?>
<!-- Generator: Adobe Illustrator 19.0.0, SVG Export Plug-In . SVG Version: 6.00 Build 0)  -->
<svg version="1.1" id="Capa_1" xmlns="http://www.w3.org/2000/svg" xmlns:xlink="http://www.w3.org/1999/xlink" x="0px" y="0px"
	 viewBox="0 0 512 512" style="enable-background:new 0 0 512 512;" xml:space="preserve">
<path style="fill:#FEC9A3;" d="M498.983,512V367.564c0.009-13.138-4.955-25.8-13.885-35.432l-62.533-69.059
	c-6.587-7.272-15.941-11.42-25.756-11.412h-45.351V512H498.983z"/>
<polygon style="fill:#F7B483;" points="420.881,399.186 351.458,329.763 351.458,512 420.881,512 "/>
<path style="fill:#3077A6;" d="M360.136,69.424H186.576c-19.17,0-34.712,15.542-34.712,34.712V468.61
	c0,19.17,15.542,34.712,34.712,34.712h173.559c19.17,0,34.712-15.542,34.712-34.712V104.136
	C394.847,84.966,379.305,69.424,360.136,69.424z"/>
<rect x="151.864" y="121.492" style="fill:#4398D1;" width="242.983" height="329.763"/>
<polygon style="fill:#3E8FC9;" points="151.864,390.508 151.864,451.254 394.847,451.254 394.847,147.525 "/>
<path style="fill:#87CED9;" d="M39.051,0h225.627c14.379,0,26.034,11.655,26.034,26.034v121.492
	c0,14.379-11.654,26.034-26.034,26.034H39.051c-14.379,0-26.034-11.655-26.034-26.034V26.034C13.017,11.655,24.671,0,39.051,0z"/>
<path style="fill:#7DC6D1;" d="M264.678,0h-32.542L58.576,173.559h206.102c14.379,0,26.034-11.655,26.034-26.034V26.034
	C290.712,11.655,279.057,0,264.678,0z"/>
<circle style="fill:#E8594A;" cx="212.61" cy="112.814" r="17.356"/>
<g>
	<rect x="39.051" y="34.712" style="fill:#61ACC9;" width="156.203" height="17.356"/>
	<rect x="39.051" y="86.78" style="fill:#61ACC9;" width="17.356" height="17.356"/>
	<rect x="73.763" y="86.78" style="fill:#61ACC9;" width="17.356" height="17.356"/>
	<rect x="108.475" y="86.78" style="fill:#61ACC9;" width="17.356" height="17.356"/>
	<rect x="143.186" y="86.78" style="fill:#61ACC9;" width="17.356" height="17.356"/>
	<rect x="39.051" y="121.492" style="fill:#61ACC9;" width="121.492" height="17.356"/>
</g>
<circle style="fill:#FDB62F;" cx="238.644" cy="112.814" r="17.356"/>
<g>
	<path style="fill:#3077A6;" d="M342.78,225.627c-3.983,0-7.454,2.716-8.418,6.578l-7.029,28.134H195.254
		c-4.79,0-8.678,3.888-8.678,8.678c0,0.703,0.087,1.415,0.26,2.1l17.356,69.424c0.963,3.862,4.434,6.578,8.418,6.578h104.136
		c4.79,0,8.678,3.888,8.678,8.678s-3.888,8.678-8.678,8.678H203.932v17.356h112.814c14.379-0.052,25.991-11.75,25.938-26.129
		c-0.035-10.231-6.057-19.482-15.395-23.665l15.23-60.919l7.038-28.134h10.578v-17.356H342.78z M318.646,295.051h-22.441
		l2.169-17.356h24.611L318.646,295.051z M250.646,295.051l-2.169-17.356h32.404l-2.169,17.356H250.646z M276.541,312.407
		l-2.169,17.356h-19.387l-2.169-17.356H276.541z M230.981,277.695l2.169,17.356H210.71l-4.339-17.356H230.981z M215.049,312.407
		h20.272l2.169,17.356h-18.102L215.049,312.407z M291.866,329.763l2.169-17.356h20.272l-4.339,17.356H291.866z"/>
	<circle style="fill:#3077A6;" cx="221.288" cy="407.864" r="17.356"/>
	<circle style="fill:#3077A6;" cx="308.068" cy="407.864" r="17.356"/>
</g>
<path style="fill:#88B337;" d="M264.678,242.983c1.718,0,3.393-0.503,4.816-1.458l26.034-17.356l-9.633-14.44l-12.54,8.357v-18.493
	H256v18.493l-12.54-8.357l-9.633,14.44l26.034,17.356C261.285,242.48,262.96,242.983,264.678,242.983z"/>
<path style="fill:#FEC9A3;" d="M446.915,407.864l-86.667-93.887c-9.268-10.04-24.914-10.674-34.964-1.406
	c-0.252,0.226-0.495,0.46-0.729,0.703l0,0c-9.268,9.268-9.702,24.142-0.998,33.94l53.934,60.65l0,0
	c-10.466,31.406-0.625,66.013,24.81,87.205L420.881,512h26.034V407.864z"/>
<path style="fill:#F7B483;" d="M438.237,399.186c-2.3,0-4.513-0.911-6.135-2.543l-43.39-43.39
	c-3.332-3.445-3.237-8.938,0.208-12.271c3.367-3.246,8.695-3.246,12.062,0l43.39,43.39c3.384,3.393,3.384,8.886,0,12.271
	C442.741,398.275,440.537,399.186,438.237,399.186z"/>
<g>
</g>
<g>
</g>
<g>
</g>
<g>
</g>
<g>
</g>
<g>
</g>
<g>
</g>
<g>
</g>
<g>
</g>
<g>
</g>
<g>
</g>
<g>
</g>
<g>
</g>
<g>
</g>
<g>
</g>
</svg>
